# xmcd
#
# Track frame offsets: 
#        150
#        16338
#        31777
#        47330
#        63497
#        81757
#        99505
#        112192
#        127268
#        142685
#        166973
#
# Disc length: 2455 seconds
#
# Revision: 0
# Processed by: cddbd v1.5.2PL0 Copyright (c) Steve Scherf et al.
# Submitted via: ExactAudioCopy v1.0b1
#
DISCID=8809950b
DTITLE=Toc Tien - Thieu Nu
DYEAR=2008
DGENRE=Pop
TTITLE0=Duong Song Song
TTITLE1=Co Be Toc Xu
TTITLE2=Da Yeu
TTITLE3=Hoa Toc Tien
TTITLE4=Song Cho Nhau
TTITLE5=Gio
TTITLE6=Toi Thich
TTITLE7=Ngay Dong Dua Mai
TTITLE8=Yeu Em Het Than Anh
TTITLE9=Cong Me Di Choi
TTITLE10=Xin Nho
EXTD=
EXTT0=
EXTT1=
EXTT2=
EXTT3=
EXTT4=
EXTT5=
EXTT6=
EXTT7=
EXTT8=
EXTT9=
EXTT10=
PLAYORDER=
